<svg xmlns="http://www.w3.org/2000/svg" viewBox="0 0 69.28 69.28"><g style="isolation:isolate"><g id="Layer_2" data-name="Layer 2"><g id="Layer_1-2" data-name="Layer 1"><path d="M34.64,69.28A34.68,34.68,0,0,1,0,34.64a1.5,1.5,0,0,1,3,0,31.64,31.64,0,0,0,63.28,0,1.5,1.5,0,0,1,3,0A34.68,34.68,0,0,1,34.64,69.28Z" style="fill:#643992"></path><path d="M67.78,36.14a1.5,1.5,0,0,1-1.5-1.5A31.64,31.64,0,0,0,3,34.64a1.5,1.5,0,0,1-3,0,34.64,34.64,0,0,1,69.28,0A1.5,1.5,0,0,1,67.78,36.14Z" style="fill:#adb5b8;mix-blend-mode:multiply"></path><path d="M47.42,32.33,41,35.18a1.55,1.55,0,0,0,0-.31,1.64,1.64,0,0,0-1.61-1.63H34.91l-3.39-1.58a5.32,5.32,0,0,0-2.26-.5H26.65V30H19.43v.7h6.51v9.23H20.73v.7h5.92V39.4h2l6.21,2.07a3.94,3.94,0,0,0,1.28.2A4.09,4.09,0,0,0,38,41.22l10.8-5.65a1.76,1.76,0,1,0-1.36-3.24Zm1.06,2.6L37.65,40.6a3.41,3.41,0,0,1-2.6.2l-6.26-2.09H26.65V31.85h2.61a4.6,4.6,0,0,1,2,.44l3.54,1.65h4.63a.94.94,0,0,1,0,1.87H33.88a1.63,1.63,0,0,0-1.44,1.49h.71c0-.57.68-.76.83-.79H39.4a1.72,1.72,0,0,0,.75-.21h0L47.7,33a1,1,0,0,1,1.37.56A1.06,1.06,0,0,1,48.48,34.93Z" style="fill:#adb5b8"></path><rect x="23.92" y="37.81" width="0.71" height="0.81" style="fill:#adb5b8"></rect><rect x="22.44" y="37.81" width="0.7" height="0.81" style="fill:#adb5b8"></rect><rect x="31.98" y="25.61" width="1.99" height="0.7" transform="translate(4.97 57.21) rotate(-86.35)" style="fill:#adb5b8"></rect><rect x="38.88" y="24.96" width="0.7" height="1.99" transform="matrix(1, -0.06, 0.06, 1, -1.58, 2.56)" style="fill:#adb5b8"></rect><path d="M36.1,20.63a2.56,2.56,0,1,0-2.56-2.56A2.56,2.56,0,0,0,36.1,20.63Zm0-4.42a1.86,1.86,0,1,1-1.85,1.86A1.87,1.87,0,0,1,36.1,16.21Z" style="fill:#adb5b8"></path><rect x="47.21" y="25.18" width="0.7" height="1.78" transform="translate(-1.55 3.05) rotate(-3.62)" style="fill:#adb5b8"></rect><path d="M44.77,21.35A2.32,2.32,0,1,0,42.45,19,2.32,2.32,0,0,0,44.77,21.35Zm0-3.94A1.62,1.62,0,1,1,43.16,19,1.62,1.62,0,0,1,44.77,17.41Z" style="fill:#adb5b8"></path><path d="M23.49,24.14a1.66,1.66,0,0,1,.25-.82,1.3,1.3,0,0,1,.69-.57l1.08-.39,1.33,2.46H28l1.32-2.46,1.09.39a1.32,1.32,0,0,1,.61.45,1.61,1.61,0,0,0-.08.56s-.18,1.62-.25,3.18l.71,0c.06-1.54.23-3.11.24-3.17a1.93,1.93,0,0,1,.28-.94,1.5,1.5,0,0,1,.8-.66L34,21.75l1.49,2.77h1.26l1.49-2.77,1.25.45a1.46,1.46,0,0,1,.8.66,2,2,0,0,1,.29,1s.17,1.59.23,3.13l.71,0c-.06-1.55-.24-3.14-.24-3.14a2.08,2.08,0,0,0-.09-.6,1.32,1.32,0,0,1,.61-.45l1.08-.39,1.33,2.46h1.17l1.33-2.46,1.08.39a1.3,1.3,0,0,1,.69.57,1.69,1.69,0,0,1,.25.86s.16,1.42.21,2.79l.71,0c-.06-1.38-.21-2.8-.22-2.8A2.31,2.31,0,0,0,49.07,23,2,2,0,0,0,48,22.09l-1.66-.59-1.41,2.62h-.33L43.2,21.5l-1.66.59a2.06,2.06,0,0,0-.67.4,2.15,2.15,0,0,0-1.16-.95l-1.82-.66-1.58,2.94h-.42l-1.58-2.94-1.82.66a2.2,2.2,0,0,0-1.16.95,2,2,0,0,0-.68-.4L29,21.5l-1.41,2.62h-.33L25.85,21.5l-1.66.59a1.93,1.93,0,0,0-1.06.88,2.18,2.18,0,0,0-.34,1.13s-.16,1.45-.22,2.84l.71,0C23.33,25.6,23.48,24.19,23.49,24.14Z" style="fill:#adb5b8"></path><rect x="23.74" y="25.71" width="1.78" height="0.71" transform="translate(-2.93 49.01) rotate(-86.38)" style="fill:#adb5b8"></rect><path d="M27.42,21.35A2.32,2.32,0,1,0,25.1,19,2.33,2.33,0,0,0,27.42,21.35Zm0-3.94A1.62,1.62,0,1,1,25.8,19,1.62,1.62,0,0,1,27.42,17.41Z" style="fill:#adb5b8"></path><path d="M22.24,53.49c-.28,0-.65,0-.87-.05v2.44a.17.17,0,0,1-.16.18h-.47a.17.17,0,0,1-.15-.18V49.83a.2.2,0,0,1,.21-.21,12.16,12.16,0,0,1,1.44-.07c1.4,0,2.43.48,2.43,1.88v.11C24.67,53,23.64,53.49,22.24,53.49Zm1.64-2.06c0-.88-.52-1.22-1.64-1.22-.27,0-.66,0-.87,0v2.54c.2,0,.64,0,.87,0,1.19,0,1.64-.38,1.64-1.29Z" style="fill:#898989"></path><path d="M28.8,56.06h-.4a.18.18,0,0,1-.17-.18v-.19a2.59,2.59,0,0,1-1.34.43,1.26,1.26,0,0,1-1.41-1.41v-.1c0-.94.54-1.41,2.09-1.41h.64v-.35c0-.73-.25-1-.93-1s-1,0-1.33.07h0c-.08,0-.16,0-.16-.14v-.3c0-.1.06-.15.19-.17a7.47,7.47,0,0,1,1.34-.11c1.21,0,1.69.61,1.69,1.63v3A.17.17,0,0,1,28.8,56.06Zm-.59-2.31h-.64c-1.05,0-1.33.23-1.33.85v.1c0,.63.29.79.8.79a2.44,2.44,0,0,0,1.17-.34Z" style="fill:#898989"></path><path d="M31.55,56.12A7.07,7.07,0,0,1,30.18,56c-.11,0-.18-.08-.18-.18v-.3a.14.14,0,0,1,.15-.13h0c.42,0,1,.1,1.36.1.57,0,.86-.15.86-.62,0-.26-.16-.43-.65-.72l-.88-.52A1.48,1.48,0,0,1,30,52.38c0-.91.67-1.16,1.57-1.16a9.1,9.1,0,0,1,1.35.11c.12,0,.17.08.17.18v.28a.13.13,0,0,1-.15.15h0c-.3,0-.85-.07-1.34-.07s-.81.06-.81.51c0,.26.2.42.6.66l.86.51c.72.42,1,.8,1,1.31C33.18,55.74,32.52,56.12,31.55,56.12Z" style="fill:#898989"></path><path d="M35.6,56.12A7,7,0,0,1,34.23,56c-.12,0-.19-.08-.19-.18v-.3c0-.08.07-.13.16-.13h0c.42,0,1.05.1,1.37.1.56,0,.86-.15.86-.62,0-.26-.16-.43-.65-.72l-.88-.52A1.49,1.49,0,0,1,34,52.38c0-.91.68-1.16,1.57-1.16a9.36,9.36,0,0,1,1.36.11.17.17,0,0,1,.16.18v.28c0,.11-.06.15-.14.15h0c-.3,0-.86-.07-1.35-.07s-.8.06-.8.51c0,.26.2.42.6.66l.86.51c.72.42.95.8.95,1.31C37.22,55.74,36.57,56.12,35.6,56.12Z" style="fill:#898989"></path><path d="M39,50.52h-.44a.18.18,0,0,1-.18-.18v-.69a.17.17,0,0,1,.18-.17H39a.17.17,0,0,1,.17.17v.69A.18.18,0,0,1,39,50.52Zm0,5.54h-.42a.18.18,0,0,1-.17-.18V51.46a.18.18,0,0,1,.17-.18h.42a.17.17,0,0,1,.17.18v4.42A.17.17,0,0,1,38.93,56.06Z" style="fill:#898989"></path><path d="M42.16,56.12A1.85,1.85,0,0,1,40.23,54v-.66a1.94,1.94,0,1,1,3.87,0V54A1.86,1.86,0,0,1,42.16,56.12Zm1.17-2.78c0-.89-.35-1.45-1.17-1.45S41,52.45,41,53.34V54c0,.89.34,1.45,1.16,1.45s1.17-.56,1.17-1.45Z" style="fill:#898989"></path><path d="M48.6,56.06h-.41a.18.18,0,0,1-.18-.18V53c0-.88-.29-1.15-.95-1.15a2.76,2.76,0,0,0-1.18.34v3.66a.18.18,0,0,1-.17.18h-.42a.18.18,0,0,1-.17-.18V51.46a.17.17,0,0,1,.17-.18h.43a.17.17,0,0,1,.16.18v.16a2.62,2.62,0,0,1,1.38-.4c1.05,0,1.52.65,1.52,1.81v2.85A.18.18,0,0,1,48.6,56.06Z" style="fill:#898989"></path></g></g></g></svg>