<svg xmlns="http://www.w3.org/2000/svg" viewBox="0 0 69.28 69.28"><g style="isolation:isolate"><g id="Layer_2" data-name="Layer 2"><g id="Layer_1-2" data-name="Layer 1"><path d="M34.64,69.28A34.68,34.68,0,0,1,0,34.64a1.5,1.5,0,0,1,3,0,31.64,31.64,0,0,0,63.28,0,1.5,1.5,0,0,1,3,0A34.68,34.68,0,0,1,34.64,69.28Z" style="fill:#643992"></path><path d="M67.78,36.14a1.5,1.5,0,0,1-1.5-1.5A31.64,31.64,0,0,0,3,34.64a1.5,1.5,0,0,1-3,0,34.64,34.64,0,0,1,69.28,0A1.5,1.5,0,0,1,67.78,36.14Z" style="fill:#adb5b8;mix-blend-mode:multiply"></path><path d="M39.16,43.48h2.06v-.7h-.84L35.1,35a8.26,8.26,0,0,0,4.65-1.87,5.82,5.82,0,0,0,.54-.48,1.85,1.85,0,0,0,.14-.14,7.83,7.83,0,0,0,1.21-1.6,6,6,0,0,0,.43-.84l.07-.15a8.37,8.37,0,0,0,.64-2.87h1.93v-.71H42.78a8.23,8.23,0,0,0-.61-2.8,8.12,8.12,0,0,0-.79-1.48l-.58.39a7.39,7.39,0,0,1,.72,1.36,7.66,7.66,0,0,1,.55,2.53h-.91v.71h.91a7.55,7.55,0,0,1-.59,2.62.69.69,0,0,1,0,.1,7.11,7.11,0,0,1-.4.78,7,7,0,0,1-1.12,1.47,1.59,1.59,0,0,1-.13.13,6.2,6.2,0,0,1-.48.43,7.69,7.69,0,0,1-2,1.18,7.6,7.6,0,0,1-2.54.55v-.92h-.7v.92A7.57,7.57,0,0,1,29,32.06a7.72,7.72,0,0,1-1.61-2.45,7.6,7.6,0,0,1-.55-2.53h.91v-.71h-.91a7.64,7.64,0,0,1,1.72-4.49,6.53,6.53,0,0,1,.57-.62,7.71,7.71,0,0,1,2.24-1.51l-.14-.32.16.31.17-.07a7.71,7.71,0,0,1,2.54-.55V20h.7v-.91a7.59,7.59,0,0,1,2.6.57A7.48,7.48,0,0,1,39.7,21.2l-1.05,1.05a6.12,6.12,0,0,0-5.78-1.45h0a5.49,5.49,0,0,0-.75.25l-.21.1A5.95,5.95,0,0,0,29.58,23a7,7,0,0,0-.78,1.35,6.11,6.11,0,0,0,0,4.7,6.07,6.07,0,0,0,3.3,3.33,6.08,6.08,0,0,0,2.37.48h0a6,6,0,0,0,2.3-.45,6.2,6.2,0,0,0,2-1.29l.13-.13A6.18,6.18,0,0,0,40,29.29c0-.06.05-.13.08-.19a4.46,4.46,0,0,0,.26-.78h0a6.3,6.3,0,0,0,.21-1.61,6.14,6.14,0,0,0-.46-2.31L40,24c-.06-.11-.12-.23-.19-.34l-.61.35.16.3c.06.13.12.25.17.37a5.3,5.3,0,0,1,.4,2,5,5,0,0,1-.19,1.43l.35.09-.35-.09a6.2,6.2,0,0,1-.23.69c0,.05,0,.1-.07.16a5.39,5.39,0,0,1-1,1.51l-.11.11a3.88,3.88,0,0,1-.51.43,5.06,5.06,0,0,1-1.24.71,5.34,5.34,0,0,1-4.15,0,5.45,5.45,0,0,1-1.79-1.21A5.42,5.42,0,0,1,29,26.74a5.44,5.44,0,0,1,.42-2.11,5.5,5.5,0,0,1,.69-1.2,4.39,4.39,0,0,1,.55-.61,5.39,5.39,0,0,1,1.51-1l.2-.09c.23-.09.44-.16.65-.22L33,21.14l.09.34a5.91,5.91,0,0,1,1.4-.19,5.45,5.45,0,0,1,3.7,1.46l-.91.92a4.11,4.11,0,0,0-1.18-.76,4,4,0,0,0-1.25-.3h-.36a4.35,4.35,0,0,0-.9.1,3.79,3.79,0,0,0-.65.21,4,4,0,0,0-1.29.83l0,0a4,4,0,0,0-.57.69,4.22,4.22,0,0,0-.67,2.28,4.15,4.15,0,0,0,.3,1.55,4.37,4.37,0,0,0,.87,1.33,4.15,4.15,0,0,0,3,1.24A4,4,0,0,0,36,30.55a2.91,2.91,0,0,0,.61-.31l.1-.06a3.85,3.85,0,0,0,.63-.5l.1-.11a4,4,0,0,0,.81-1.25,3,3,0,0,0,.22-.68,4.06,4.06,0,0,0,.11-.92c0-.11,0-.22,0-.33l-.35,0,.35,0a3.82,3.82,0,0,0-.29-1.22l-.65.27a3.38,3.38,0,0,1,.24,1,2.35,2.35,0,0,1,0,.27,3.37,3.37,0,0,1-.09.77,3.62,3.62,0,0,1-.17.56,3.48,3.48,0,0,1-.69,1.05l-.08.08a3.13,3.13,0,0,1-.44.36l-.08.06a3.52,3.52,0,0,1-.58.3,3.42,3.42,0,0,1-1.29.26,3.68,3.68,0,0,1-1.34-.27A3.35,3.35,0,0,1,32,29.12a3.41,3.41,0,0,1-.71-3.72,3.71,3.71,0,0,1,.29-.56,3.54,3.54,0,0,1,.48-.57L31.82,24l.28.23a3.24,3.24,0,0,1,1.06-.69,3.74,3.74,0,0,1,.54-.17,4.52,4.52,0,0,1,.75-.09l.29,0,0-.36,0,.36a3.22,3.22,0,0,1,1,.25,3.63,3.63,0,0,1,1,.6l-1.2,1.2a1.82,1.82,0,0,0-.67-.29h0a1.9,1.9,0,0,0-2.19,1.16,2,2,0,0,0-.14.71,1.91,1.91,0,0,0,2.63,1.78h0a1.92,1.92,0,0,0,1.17-1.39l-.69-.15a1.18,1.18,0,0,1-.74.88l.13.33-.13-.32a1.33,1.33,0,0,1-.45.08,1.21,1.21,0,0,1-1.21-1.21,1.38,1.38,0,0,1,.08-.45,1.2,1.2,0,0,1,1.39-.73l.07-.35-.07.35a1.15,1.15,0,0,1,.31.11l-.82.82.5.5L43,19l2.14.43,4-4-2.56-.51L46,12.33l-4,4,.42,2.14L40.2,20.7A8.36,8.36,0,0,0,37.68,19a8.59,8.59,0,0,0-2.87-.63V16.48h-.7v1.93a8.46,8.46,0,0,0-2.8.6l-.21.09h0a7.36,7.36,0,0,0-.84.43,8.23,8.23,0,0,0-1.61,1.22,7.54,7.54,0,0,0-.61.67,8.31,8.31,0,0,0-1.89,4.94H24.22v.71h1.92a8.23,8.23,0,0,0,.61,2.8A8.31,8.31,0,0,0,33.83,35l-5.27,7.75h-.72v.7H29.9v-.7h-.48l4.69-6.91V37h0v5.81h-.78v.7h2.26v-.7h-.77V35.86l4.7,6.92h-.36Zm6.41-29.71.34,1.72,1.72.34-2.77,2.78-1.73-.34-.34-1.73Z" style="fill:#adb5b8"></path><path d="M20.17,56a6.8,6.8,0,0,1-1.44.11c-1.07,0-2.29-.57-2.29-2.68V52.23c0-2.13,1.22-2.68,2.29-2.68a8.31,8.31,0,0,1,1.46.14c.08,0,.14,0,.14.11v.44s0,.1-.11.1h0c-.31,0-1-.08-1.46-.08-.85,0-1.51.49-1.51,2v1.21c0,1.45.66,2,1.51,2,.49,0,1.12,0,1.43-.07h0a.12.12,0,0,1,.14.14v.35C20.35,55.94,20.27,56,20.17,56Z" style="fill:#898989"></path><path d="M24.72,56.06H24.3a.18.18,0,0,1-.17-.18V53c0-.87-.36-1.14-.93-1.14a3.48,3.48,0,0,0-1.2.24v3.75a.18.18,0,0,1-.17.18H21.4a.18.18,0,0,1-.16-.18V49.7a.17.17,0,0,1,.16-.17h.44a.17.17,0,0,1,.16.17v1.79a3.71,3.71,0,0,1,1.33-.27c.92,0,1.56.53,1.56,1.81v2.85A.17.17,0,0,1,24.72,56.06Z" style="fill:#898989"></path><path d="M29.23,56.06h-.4a.18.18,0,0,1-.18-.18v-.19a2.56,2.56,0,0,1-1.33.43,1.27,1.27,0,0,1-1.42-1.41v-.1c0-.94.55-1.41,2.09-1.41h.65v-.35c0-.73-.26-1-.93-1s-1,0-1.33.07h0c-.08,0-.16,0-.16-.14v-.3c0-.1.06-.15.18-.17a7.69,7.69,0,0,1,1.35-.11c1.2,0,1.69.61,1.69,1.63v3A.18.18,0,0,1,29.23,56.06Zm-.59-2.31H28c-1,0-1.32.23-1.32.85v.1c0,.63.29.79.79.79a2.47,2.47,0,0,0,1.18-.34Z" style="fill:#898989"></path><path d="M31.27,56.06h-.45a.17.17,0,0,1-.15-.18V49.69a.16.16,0,0,1,.15-.16h.45a.16.16,0,0,1,.16.16v6.19A.17.17,0,0,1,31.27,56.06Z" style="fill:#898989"></path><path d="M33.39,56.06h-.45a.16.16,0,0,1-.15-.18V49.69a.16.16,0,0,1,.15-.16h.45a.16.16,0,0,1,.16.16v6.19A.17.17,0,0,1,33.39,56.06Z" style="fill:#898989"></path><path d="M38.33,53.91H35.42V54c0,1,.41,1.42,1.21,1.42a10.53,10.53,0,0,0,1.55-.1h0a.13.13,0,0,1,.14.13v.29c0,.11,0,.17-.17.2a7.65,7.65,0,0,1-1.56.15,1.82,1.82,0,0,1-2-2.09v-.78a1.82,1.82,0,0,1,1.93-2,1.8,1.8,0,0,1,1.91,2v.47C38.5,53.84,38.44,53.91,38.33,53.91Zm-.6-.66c0-1-.38-1.36-1.14-1.36s-1.17.43-1.17,1.36v.08h2.31Z" style="fill:#898989"></path><path d="M43,56.06H42.6a.18.18,0,0,1-.17-.18V53c0-.88-.29-1.15-1-1.15a2.76,2.76,0,0,0-1.18.34v3.66a.18.18,0,0,1-.17.18H39.7a.18.18,0,0,1-.16-.18V51.46a.17.17,0,0,1,.16-.18h.44a.17.17,0,0,1,.16.18v.16a2.62,2.62,0,0,1,1.38-.4c1,0,1.51.65,1.51,1.81v2.85A.17.17,0,0,1,43,56.06Z" style="fill:#898989"></path><path d="M48.17,51.86l-.31.07a1.22,1.22,0,0,1,.29.89v.07c0,1-.59,1.48-1.93,1.48a2.54,2.54,0,0,1-1-.17.31.31,0,0,0-.22.3c0,.14.07.22.27.27l1.29.33c.85.22,1.67.46,1.67,1.28v.07c0,.83-.56,1.34-2,1.34s-2-.53-2-1.38v-.07a1.41,1.41,0,0,1,.55-1.11l-.06,0a.71.71,0,0,1-.4-.68h0a.69.69,0,0,1,.36-.62,1.3,1.3,0,0,1-.4-1v-.07c0-.77.43-1.54,1.92-1.54h1.91a.21.21,0,0,1,.2.19v.23C48.33,51.81,48.26,51.85,48.17,51.86Zm-.7,4.52c0-.34-.28-.48-1.06-.68l-1-.25a1,1,0,0,0-.43.89v.07c0,.49.29.79,1.25.79s1.22-.27,1.22-.75Zm-.07-3.56c0-.52-.24-.93-1.18-.93s-1.17.44-1.17.93v.07c0,.38.18.88,1.17.88s1.18-.36,1.18-.88Z" style="fill:#898989"></path><path d="M52.74,53.91h-2.9V54c0,1,.4,1.42,1.2,1.42a10.44,10.44,0,0,0,1.55-.1h0a.13.13,0,0,1,.14.13v.29c0,.11,0,.17-.17.2a7.65,7.65,0,0,1-1.56.15,1.82,1.82,0,0,1-2-2.09v-.78a1.82,1.82,0,0,1,1.93-2,1.8,1.8,0,0,1,1.91,2v.47C52.91,53.84,52.85,53.91,52.74,53.91Zm-.6-.66c0-1-.38-1.36-1.14-1.36s-1.16.43-1.16,1.36v.08h2.3Z" style="fill:#898989"></path></g></g></g></svg>