<svg xmlns="http://www.w3.org/2000/svg" viewBox="0 0 69.28 69.28"><g style="isolation:isolate"><g id="Layer_2" data-name="Layer 2"><g id="Layer_1-2" data-name="Layer 1"><path d="M34.64,69.28A34.68,34.68,0,0,1,0,34.64a1.5,1.5,0,0,1,3,0,31.64,31.64,0,0,0,63.28,0,1.5,1.5,0,0,1,3,0A34.68,34.68,0,0,1,34.64,69.28Z" style="fill:#643992"></path><path d="M67.78,36.14a1.5,1.5,0,0,1-1.5-1.5A31.64,31.64,0,0,0,3,34.64a1.5,1.5,0,0,1-3,0,34.64,34.64,0,0,1,69.28,0A1.5,1.5,0,0,1,67.78,36.14Z" style="fill:#adb5b8;mix-blend-mode:multiply"></path><path d="M49.63,30.29l-2.81-6.38V21.6c-.22-2.52-2.23-5.14-4.13-6.61a11.43,11.43,0,0,0-9.19-2.22,12.22,12.22,0,0,0-3.82,1.39,12,12,0,0,0-3,2.51,11.2,11.2,0,0,0-1.86,3,12.72,12.72,0,0,0,.09,9.17,26.64,26.64,0,0,0,1.73,3.53l-6.34,7a2.37,2.37,0,0,0-.63,1.76,2.31,2.31,0,0,0,.87,1.64,2.29,2.29,0,0,0,1.46.52,2.34,2.34,0,0,0,1.91-1l4.58-6.41a7.54,7.54,0,0,1,.89,3.61V43.2h13V35.93l3,0a1.82,1.82,0,0,0,1.42-.53A1.86,1.86,0,0,0,47.37,34l-.15-3.63ZM23.31,41.94a1.61,1.61,0,0,1-2.35.35,1.62,1.62,0,0,1-.16-2.38l8.36-9.28-.23-.23a9,9,0,0,1,5-15.08,9.26,9.26,0,0,1,1.57-.14,9,9,0,0,1,.75,18,8.75,8.75,0,0,1-5.4-1.26l-.28-.17ZM46.67,34a1.16,1.16,0,0,1-.35.88,1.2,1.2,0,0,1-.91.33l-3.72,0,0,7.26H30.06V39.55a8.22,8.22,0,0,0-1.14-4.25l1.86-2.59a9.51,9.51,0,0,0,5.55,1.19,9.73,9.73,0,0,0,6.15-16.48,9.88,9.88,0,0,0-8.66-2.8,9.73,9.73,0,0,0-5.62,16l-1.09,1.21a28,28,0,0,1-1.55-3.22A12.06,12.06,0,0,1,25.45,20a10.24,10.24,0,0,1,1.75-2.83A11,11,0,0,1,30,14.77a11.41,11.41,0,0,1,3.6-1.31,10.69,10.69,0,0,1,8.62,2.09c2.13,1.66,3.69,4.11,3.86,6.08v2.43l2.44,5.55-2.07.05Z" style="fill:#adb5b8"></path><rect x="39.9" y="38.39" width="0.71" height="0.71" style="fill:#adb5b8"></rect><rect x="39.9" y="36.65" width="0.71" height="0.71" style="fill:#adb5b8"></rect><rect x="39.9" y="40.13" width="0.71" height="0.71" style="fill:#adb5b8"></rect><path d="M35.21,28.74v2.45h.7V28.74a4.57,4.57,0,0,0,4.2-4.2h2.45v-.7H40.11a4.57,4.57,0,0,0-4.2-4.2V17.19h-.7v2.45a4.57,4.57,0,0,0-4.2,4.2H28.56v.7H31A4.58,4.58,0,0,0,35.21,28.74Zm0-8.39v.94h.7v-.94a3.85,3.85,0,0,1,3.49,3.49h-.94v.7h.94A3.85,3.85,0,0,1,35.91,28v-.94h-.7V28a3.86,3.86,0,0,1-3.49-3.49h.94v-.7h-.94A3.85,3.85,0,0,1,35.21,20.35Z" style="fill:#adb5b8"></path><path d="M20.32,56a6.8,6.8,0,0,1-1.44.11c-1.06,0-2.29-.57-2.29-2.68V52.23c0-2.13,1.23-2.68,2.29-2.68a8.31,8.31,0,0,1,1.46.14c.08,0,.14,0,.14.11v.44a.09.09,0,0,1-.1.1h0c-.31,0-1-.08-1.46-.08-.85,0-1.51.49-1.51,2v1.21c0,1.45.66,2,1.51,2,.5,0,1.12,0,1.43-.07h0c.1,0,.14,0,.14.14v.35C20.5,55.94,20.42,56,20.32,56Z" style="fill:#898989"></path><path d="M23.35,51.88a2.22,2.22,0,0,0-1.19.37v3.63a.19.19,0,0,1-.18.18h-.42a.18.18,0,0,1-.17-.18V51.46a.17.17,0,0,1,.17-.18H22a.17.17,0,0,1,.16.18v.18a2,2,0,0,1,1.22-.42c.13,0,.19.05.19.16v.35C23.54,51.83,23.48,51.88,23.35,51.88Z" style="fill:#898989"></path><path d="M27.88,53.91H25V54c0,1,.41,1.42,1.21,1.42a10.39,10.39,0,0,0,1.54-.1h0a.13.13,0,0,1,.14.13v.29c0,.11,0,.17-.17.2a7.55,7.55,0,0,1-1.55.15,1.83,1.83,0,0,1-2-2.09v-.78a1.82,1.82,0,0,1,1.93-2,1.8,1.8,0,0,1,1.91,2v.47C28,53.84,28,53.91,27.88,53.91Zm-.61-.66c0-1-.37-1.36-1.14-1.36S25,52.32,25,53.25v.08h2.3Z" style="fill:#898989"></path><path d="M32.24,56.06h-.4a.18.18,0,0,1-.18-.18v-.19a2.56,2.56,0,0,1-1.33.43,1.27,1.27,0,0,1-1.42-1.41v-.1c0-.94.55-1.41,2.09-1.41h.64v-.35c0-.73-.25-1-.92-1s-1,0-1.33.07h-.05c-.07,0-.15,0-.15-.14v-.3c0-.1.06-.15.18-.17a7.69,7.69,0,0,1,1.35-.11c1.2,0,1.69.61,1.69,1.63v3A.18.18,0,0,1,32.24,56.06Zm-.6-2.31H31c-1.05,0-1.33.23-1.33.85v.1c0,.63.3.79.8.79a2.41,2.41,0,0,0,1.17-.34Z" style="fill:#898989"></path><path d="M36,56.08a5.66,5.66,0,0,1-.57,0c-.8,0-1.18-.21-1.18-1.16v-3l-.84-.1a.16.16,0,0,1-.16-.16v-.23a.15.15,0,0,1,.16-.16h.84v-.85a.18.18,0,0,1,.16-.17l.45-.07h0a.14.14,0,0,1,.13.15v.94h.93a.18.18,0,0,1,.18.18v.29a.18.18,0,0,1-.18.18H35v3c0,.47.12.54.47.54h.48q.18,0,.18.12v.31C36.12,56,36.08,56.06,36,56.08Z" style="fill:#898989"></path><path d="M37.63,50.52h-.44a.18.18,0,0,1-.17-.17v-.7a.18.18,0,0,1,.17-.17h.44a.18.18,0,0,1,.18.17v.7A.18.18,0,0,1,37.63,50.52Zm0,5.54H37.2a.17.17,0,0,1-.17-.18V51.46a.17.17,0,0,1,.17-.18h.42a.18.18,0,0,1,.17.18v4.42A.18.18,0,0,1,37.62,56.06Z" style="fill:#898989"></path><path d="M42.74,51.49l-1.17,4.13a.87.87,0,0,1-1.57,0l-1.17-4.13a.15.15,0,0,1,0-.06.14.14,0,0,1,.14-.15h.48c.07,0,.13,0,.16.17l1,3.78c.06.21.1.25.19.25s.13,0,.18-.25l1-3.78c0-.12.09-.17.16-.17h.48a.13.13,0,0,1,.14.15A.15.15,0,0,1,42.74,51.49Z" style="fill:#898989"></path><path d="M44.38,50.52h-.44a.18.18,0,0,1-.18-.17v-.7a.18.18,0,0,1,.18-.17h.44a.17.17,0,0,1,.17.17v.7A.17.17,0,0,1,44.38,50.52Zm0,5.54H44a.18.18,0,0,1-.18-.18V51.46a.18.18,0,0,1,.18-.18h.41a.18.18,0,0,1,.18.18v4.42A.18.18,0,0,1,44.36,56.06Z" style="fill:#898989"></path><path d="M48.2,56.08a5.46,5.46,0,0,1-.57,0c-.79,0-1.18-.21-1.18-1.16v-3l-.84-.1a.16.16,0,0,1-.16-.16v-.23a.15.15,0,0,1,.16-.16h.84v-.85a.19.19,0,0,1,.16-.17l.45-.07h0a.14.14,0,0,1,.13.15v.94h.94a.18.18,0,0,1,.17.18v.29a.18.18,0,0,1-.17.18h-.94v3c0,.47.12.54.47.54h.48c.12,0,.19,0,.19.12v.31C48.36,56,48.31,56.06,48.2,56.08Z" style="fill:#898989"></path><path d="M52.86,51.49l-1.43,5c-.27.94-.59,1.29-1.59,1.29a3.88,3.88,0,0,1-.73-.08c-.1,0-.18-.05-.18-.14v-.32c0-.1.07-.14.16-.14h0c.19,0,.58,0,.77,0,.5,0,.71-.13.86-.74l.09-.35h-.12c-.26,0-.49-.06-.65-.6l-1.15-4a.13.13,0,0,1,0-.06.14.14,0,0,1,.16-.15h.47a.18.18,0,0,1,.15.14l1,3.77c0,.17.1.19.16.19H51l1.06-4a.18.18,0,0,1,.16-.13h.49a.13.13,0,0,1,.14.15A.13.13,0,0,1,52.86,51.49Z" style="fill:#898989"></path></g></g></g></svg>